<svg width="14" height="16" viewBox="0 0 14 16" fill="none" xmlns="http://www.w3.org/2000/svg">
  <path
    d="M5.81752 1.41058L6.25186 8.39709L7.99849 8.2885L7.56415 1.30199L5.81752 1.41058ZM3.7382 4.06471L3.10814 4.64742C1.76287 5.85322 0.945737 7.6574 1.06627 9.59615C1.27583 12.9671 4.18852 15.5389 7.55951 15.3293C10.9305 15.1197 13.5022 12.2071 13.2927 8.83606C13.1721 6.89731 12.1378 5.20823 10.6536 4.17834L9.95619 3.67815L8.94051 5.10893L9.63789 5.60912C10.7009 6.34959 11.4592 7.54735 11.546 8.94465C11.697 11.3725 9.87874 13.4317 7.45092 13.5827C5.02311 13.7336 2.96383 11.9154 2.81289 9.48757C2.72603 8.09027 3.27772 6.81107 4.24081 5.94464L4.92327 5.35867L3.7382 4.06471Z"
    fill="white" />
</svg>
  