<svg width="40" height="26" viewBox="0 0 40 26" fill="none" xmlns="http://www.w3.org/2000/svg">
  <path
    d="M15.144 8.3429C5.85233 9.81178 4.28778 11.9639 4.28778 11.9639L5.48933 19.5645C5.19589 19.5156 4.84964 19.4941 4.53372 19.5441C2.99131 19.7879 1.94306 21.2298 2.1869 22.7722C2.43073 24.3147 3.87264 25.3629 5.41506 25.1191C6.95747 24.8752 8.00572 23.4333 7.76188 21.8909L6.59559 14.5134C7.8846 13.8715 10.1644 13.1111 13.882 12.4091L14.4872 16.2372C14.1938 16.1884 13.8475 16.1669 13.5316 16.2169C11.9892 16.4607 10.9409 17.9026 11.1848 19.445C11.4286 20.9874 12.8705 22.0357 14.4129 21.7919C15.9553 21.548 17.0036 20.1061 16.7597 18.5637L15.144 8.3429Z"
    fill="white" />
  <path
    d="M26.9871 4.22812e-05C21.9952 0.7892 21.1546 1.94542 21.1546 1.94542L21.8001 6.02881C21.6425 6.00257 21.4565 5.99104 21.2867 6.01787C20.4581 6.14887 19.8949 6.92354 20.0259 7.7522C20.1569 8.58086 20.9316 9.14403 21.7602 9.01303C22.5889 8.88203 23.1521 8.10736 23.0211 7.2787L22.3945 3.31511C23.087 2.97027 24.3118 2.56174 26.3091 2.18459L26.6342 4.24127C26.4766 4.21502 26.2906 4.2035 26.1208 4.23033C25.2922 4.36133 24.729 5.13599 24.86 5.96465C24.991 6.79331 25.7657 7.35648 26.5943 7.22548C27.423 7.09448 27.9862 6.31982 27.8552 5.49116L26.9871 4.22812e-05Z"
    fill="white" />
  <path
    d="M38.0987 3.64135C34.287 4.24392 33.6452 5.12677 33.6452 5.12677L34.1381 8.24472C34.0177 8.22468 33.8757 8.21588 33.7461 8.23637C33.1133 8.3364 32.6833 8.92791 32.7833 9.56065C32.8834 10.1934 33.4749 10.6234 34.1076 10.5234C34.7404 10.4233 35.1704 9.83184 35.0704 9.1991L34.5919 6.17263C35.1207 5.90932 36.0559 5.59738 37.581 5.3094L37.8293 6.87981C37.7089 6.85977 37.5668 6.85097 37.4372 6.87146C36.8045 6.97149 36.3745 7.563 36.4745 8.19573C36.5745 8.82847 37.166 9.25849 37.7988 9.15846C38.4315 9.05844 38.8615 8.46693 38.7615 7.83419L38.0987 3.64135Z"
    fill="white" />
</svg>
  