<svg width="28" height="29" viewBox="0 0 28 29" fill="none" xmlns="http://www.w3.org/2000/svg">
  <path
    d="M7.891 8.75313C5.72097 9.966 5.18042 13.1678 6.70202 15.8902C8.22363 18.6126 11.234 19.8298 13.404 18.6169C15.5741 17.404 16.1146 14.2022 14.593 11.4798C13.0714 8.75739 10.061 7.54026 7.891 8.75313ZM9.281 20.9213C7.24502 22.1887 6.52745 24.8423 7.71827 26.9728L8.82088 28.9456L24.6029 20.1247L23.5003 18.1519C22.3094 16.0214 19.6931 15.2313 17.5271 16.3124C17.1344 18.1112 16.1046 19.6965 14.5067 20.5896C12.9087 21.4827 11.0189 21.5293 9.281 20.9213Z"
    fill="white" />
  <path
    d="M17.5734 2.89893C16.3157 3.60187 16.0024 5.45755 16.8843 7.03536C17.7661 8.61317 19.5109 9.31857 20.7685 8.61563C22.0262 7.91269 22.3395 6.05702 21.4576 4.47921C20.5758 2.9014 18.831 2.19599 17.5734 2.89893ZM18.379 9.95122C17.199 10.6858 16.7831 12.2237 17.4733 13.4585L18.1123 14.6018L27.259 9.48951L26.62 8.34617C25.9298 7.11136 24.4135 6.65344 23.1581 7.28005C22.9305 8.32256 22.3337 9.24135 21.4076 9.75897C20.4815 10.2766 19.3862 10.3036 18.379 9.95122Z"
    fill="white" />
</svg>
  