<svg width="20" height="20" viewBox="0 0 20 20" fill="none" xmlns="http://www.w3.org/2000/svg">
  <path
    d="M11.7941 2.26831C11.6962 2.24488 11.5795 2.29981 11.4973 2.3837L8.80797 5.48886C8.74537 5.57744 8.62869 5.63237 8.51116 5.60426L5.74915 4.94367C4.12329 4.55482 2.49695 5.55336 2.1081 7.17922L0.0420128 15.8178C0.018588 15.9158 0.0782027 16.0129 0.176146 16.0363L15.4749 19.6953C15.5728 19.7187 15.6699 19.6591 15.6934 19.5611L18.4154 8.18012C18.4435 8.06259 18.3792 7.98509 18.2812 7.96166L16.6945 7.58218C16.5966 7.55875 16.5174 7.45697 16.4821 7.34497L15.4887 3.35903C15.4534 3.24703 15.3937 3.14994 15.2762 3.12183L11.7307 2.27384L11.7941 2.26831ZM5.31514 6.9315C5.86363 7.06268 6.19151 7.5967 6.06033 8.14518C5.92915 8.69367 5.39513 9.02155 4.84664 8.89037C4.29816 8.75919 3.97028 8.22517 4.10146 7.67668C4.23264 7.1282 4.76666 6.80032 5.31514 6.9315ZM12.1712 8.57125C14.3259 9.0866 15.6673 11.2712 15.1519 13.426C14.6366 15.5807 12.4519 16.9221 10.2972 16.4067C8.14243 15.8914 6.8011 13.7067 7.31645 11.552C7.8318 9.39723 10.0164 8.0559 12.1712 8.57125ZM11.7027 10.5301C10.6253 10.2724 9.53299 10.9431 9.27531 12.0205C9.01764 13.0979 9.6883 14.1902 10.7657 14.4479C11.8431 14.7055 12.9354 14.0349 13.193 12.9575C13.4507 11.8801 12.7801 10.7878 11.7027 10.5301Z"
    fill="white" />
</svg>
  