<svg width="38" height="25" viewBox="0 0 38 25" fill="none" xmlns="http://www.w3.org/2000/svg">
  <path
    d="M17.3206 4.83149L14.952 9.10403L17.1337 10.3135L22.5476 13.3744L19.5575 18.7681L18.3277 20.8791L22.6205 23.3184L23.83 21.1367L26.8706 15.6521L32.2845 18.7129L34.3956 19.9427L36.8146 15.5792L34.6532 14.4404L29.1888 11.4704L32.2294 5.98583L33.4389 3.80411L29.0957 1.45574L27.9568 3.61721L24.9667 9.01092L19.5023 6.041L17.3206 4.83149Z"
    fill="white" />
  <path
    d="M1.89663 7.82614L0.543735 10.2665L1.78988 10.9573L4.88219 12.7056L3.17428 15.7864L2.47187 16.9921L4.92381 18.3854L5.61465 17.1392L7.35134 14.0066L10.4437 15.7548L11.6494 16.4573L13.0311 13.965L11.7966 13.3145L8.67545 11.6181L10.4121 8.48547L11.103 7.23933L8.62227 5.898L7.97178 7.13257L6.26387 10.2133L3.14277 8.51698L1.89663 7.82614Z"
    fill="white" />
</svg>
  