<svg width="25" height="24" viewBox="0 0 25 24" fill="none" xmlns="http://www.w3.org/2000/svg">
  <path fill-rule="evenodd" clip-rule="evenodd" d="M21.5 19.5C21.5 21 20 21 20 21H5C5 21 3.5 21 3.5 19.5C3.5 18 5 13.5 12.5 13.5C20 13.5 21.5 18 21.5 19.5ZM19.988 19.497C19.981 19.4982 19.974 19.4992 19.967 19.5H5.033C5.02198 19.4981 5.01098 19.4961 5 19.494C5.003 19.125 5.231 18.015 6.248 16.998C7.226 16.02 9.065 15 12.5 15C15.9335 15 17.774 16.02 18.752 16.998C19.769 18.015 19.9985 19.125 20 19.494L19.988 19.497Z" fill="#333333"/>
  <path fill-rule="evenodd" clip-rule="evenodd" d="M17 7.5C17 8.69347 16.5259 9.83807 15.682 10.682C14.8381 11.5259 13.6935 12 12.5 12C11.3065 12 10.1619 11.5259 9.31802 10.682C8.47411 9.83807 8 8.69347 8 7.5C8 6.30653 8.47411 5.16193 9.31802 4.31802C10.1619 3.47411 11.3065 3 12.5 3C13.6935 3 14.8381 3.47411 15.682 4.31802C16.5259 5.16193 17 6.30653 17 7.5ZM14.6213 9.62132C14.0587 10.1839 13.2956 10.5 12.5 10.5C11.7044 10.5 10.9413 10.1839 10.3787 9.62132C9.81607 9.05871 9.5 8.29565 9.5 7.5C9.5 6.70435 9.81607 5.94129 10.3787 5.37868C10.9413 4.81607 11.7044 4.5 12.5 4.5C13.2956 4.5 14.0587 4.81607 14.6213 5.37868C15.1839 5.94129 15.5 6.70435 15.5 7.5C15.5 8.29565 15.1839 9.05871 14.6213 9.62132Z" fill="#FFD804"/>
</svg>  