<svg width="18" height="20" viewBox="0 0 18 20" fill="none" xmlns="http://www.w3.org/2000/svg">
  <path d="M5.83936 15.4805V16.1845C5.83936 16.9313 6.13604 17.6476 6.66414 18.1757C7.19224 18.7038 7.9085 19.0005 8.65535 19.0005C9.4022 19.0005 10.1185 18.7038 10.6466 18.1757C11.1747 17.6476 11.4714 16.9313 11.4714 16.1845V15.4805" stroke="#FFD804" stroke-width="2" stroke-linecap="round" stroke-linejoin="round"/>
  <path d="M2.33741 7.73633C2.33625 6.9014 2.50035 6.07449 2.82025 5.30327C3.14016 4.53205 3.60954 3.83177 4.20135 3.2428C4.79316 2.65384 5.49569 2.18783 6.26844 1.87164C7.04119 1.55545 7.86888 1.39533 8.7038 1.40051C12.1877 1.42641 14.9744 4.32223 14.9744 7.81587V8.44033C14.9744 11.5921 15.6338 13.421 16.2145 14.4206C16.2771 14.5275 16.3104 14.6489 16.3111 14.7727C16.3117 14.8964 16.2797 15.0182 16.2183 15.1257C16.1569 15.2331 16.0682 15.3225 15.9612 15.3848C15.8543 15.4471 15.7327 15.48 15.609 15.4803H1.70211C1.57831 15.48 1.45678 15.447 1.34979 15.3848C1.2428 15.3225 1.15413 15.2331 1.09272 15.1256C1.0313 15.0181 0.999327 14.8963 1.00001 14.7725C1.00069 14.6487 1.03401 14.5273 1.09661 14.4205C1.6777 13.4208 2.33741 11.5919 2.33741 8.44033L2.33741 7.73633Z" stroke="#333333" stroke-width="2" stroke-linecap="round" stroke-linejoin="round"/>
</svg> 