<svg width="25" height="24" viewBox="0 0 25 24" fill="none" xmlns="http://www.w3.org/2000/svg">
  <path fill-rule="evenodd" clip-rule="evenodd" d="M6.5 1.5H18.5C19.2956 1.5 20.0587 1.81607 20.6213 2.37868C21.1839 2.94129 21.5 3.70435 21.5 4.5V19.5C21.5 20.2956 21.1839 21.0587 20.6213 21.6213C20.0587 22.1839 19.2956 22.5 18.5 22.5H6.5C5.70435 22.5 4.94129 22.1839 4.37868 21.6213C3.81607 21.0587 3.5 20.2956 3.5 19.5V4.5C3.5 3.70435 3.81607 2.94129 4.37868 2.37868C4.94129 1.81607 5.70435 1.5 6.5 1.5ZM6.5 3C6.10218 3 5.72064 3.15804 5.43934 3.43934C5.15804 3.72064 5 4.10218 5 4.5V19.5C5 19.8978 5.15804 20.2794 5.43934 20.5607C5.72064 20.842 6.10218 21 6.5 21H18.5C18.8978 21 19.2794 20.842 19.5607 20.5607C19.842 20.2794 20 19.8978 20 19.5V4.5C20 4.10218 19.842 3.72064 19.5607 3.43934C19.2794 3.15804 18.8978 3 18.5 3H6.5Z" fill="#333333"/>
  <path fill-rule="evenodd" clip-rule="evenodd" d="M7.25 15.75C7.25 15.5511 7.32902 15.3603 7.46967 15.2197C7.61032 15.079 7.80109 15 8 15H12.5C12.6989 15 12.8897 15.079 13.0303 15.2197C13.171 15.3603 13.25 15.5511 13.25 15.75C13.25 15.9489 13.171 16.1397 13.0303 16.2803C12.8897 16.421 12.6989 16.5 12.5 16.5H8C7.80109 16.5 7.61032 16.421 7.46967 16.2803C7.32902 16.1397 7.25 15.9489 7.25 15.75ZM7.25 12.75C7.25 12.5511 7.32902 12.3603 7.46967 12.2197C7.61032 12.079 7.80109 12 8 12H17C17.1989 12 17.3897 12.079 17.5303 12.2197C17.671 12.3603 17.75 12.5511 17.75 12.75C17.75 12.9489 17.671 13.1397 17.5303 13.2803C17.3897 13.421 17.1989 13.5 17 13.5H8C7.80109 13.5 7.61032 13.421 7.46967 13.2803C7.32902 13.1397 7.25 12.9489 7.25 12.75ZM7.25 9.75C7.25 9.55109 7.32902 9.36032 7.46967 9.21967C7.61032 9.07902 7.80109 9 8 9H17C17.1989 9 17.3897 9.07902 17.5303 9.21967C17.671 9.36032 17.75 9.55109 17.75 9.75C17.75 9.94891 17.671 10.1397 17.5303 10.2803C17.3897 10.421 17.1989 10.5 17 10.5H8C7.80109 10.5 7.61032 10.421 7.46967 10.2803C7.32902 10.1397 7.25 9.94891 7.25 9.75ZM7.25 6.75C7.25 6.55109 7.32902 6.36032 7.46967 6.21967C7.61032 6.07902 7.80109 6 8 6H17C17.1989 6 17.3897 6.07902 17.5303 6.21967C17.671 6.36032 17.75 6.55109 17.75 6.75C17.75 6.94891 17.671 7.13968 17.5303 7.28033C17.3897 7.42098 17.1989 7.5 17 7.5H8C7.80109 7.5 7.61032 7.42098 7.46967 7.28033C7.32902 7.13968 7.25 6.94891 7.25 6.75Z" fill="#FFD804"/>
</svg>  