<svg width="25" height="24" viewBox="0 0 25 24" fill="none" xmlns="http://www.w3.org/2000/svg">
  <path fill-rule="evenodd" clip-rule="evenodd" d="M20 3.75V9L17 6V3.75C17 3.55109 17.079 3.36032 17.2197 3.21967C17.3603 3.07902 17.5511 3 17.75 3H19.25C19.4489 3 19.6397 3.07902 19.7803 3.21967C19.921 3.36032 20 3.55109 20 3.75Z" fill="#FFD804"/>
  <path fill-rule="evenodd" clip-rule="evenodd" d="M11.969 1.719C12.0387 1.64915 12.1214 1.59374 12.2126 1.55593C12.3037 1.51812 12.4014 1.49866 12.5 1.49866C12.5987 1.49866 12.6963 1.51812 12.7875 1.55593C12.8786 1.59374 12.9613 1.64915 13.031 1.719L22.031 10.719C22.1006 10.7888 22.1558 10.8716 22.1933 10.9627C22.2309 11.0538 22.2502 11.1514 22.25 11.25V21.75C22.25 21.9489 22.171 22.1397 22.0303 22.2803C21.8897 22.421 21.6989 22.5 21.5 22.5H14.75C14.5511 22.5 14.3603 22.421 14.2197 22.2803C14.079 22.1397 14 21.9489 14 21.75V15.75H11V21.75C11 21.9489 10.921 22.1397 10.7803 22.2803C10.6397 22.421 10.4489 22.5 10.25 22.5H3.5C3.30109 22.5 3.11032 22.421 2.96967 22.2803C2.82902 22.1397 2.75 21.9489 2.75 21.75V11.25C2.74983 11.1514 2.76908 11.0538 2.80665 10.9627C2.84423 10.8716 2.8994 10.7888 2.969 10.719L11.969 1.719ZM4.25 11.5605V21H9.5V15C9.5 14.8011 9.57902 14.6103 9.71967 14.4697C9.86032 14.329 10.0511 14.25 10.25 14.25H14.75C14.9489 14.25 15.1397 14.329 15.2803 14.4697C15.421 14.6103 15.5 14.8011 15.5 15V21H20.75V11.5605L12.5 3.3105L4.25 11.5605Z" fill="#333333"/>
</svg>