<svg width="23" height="22" viewBox="0 0 23 22" fill="none" xmlns="http://www.w3.org/2000/svg">
  <g clip-path="url(#clip0_40_308)">
  <path d="M21.8152 2.66755C21.9437 2.79642 22.0158 2.97096 22.0158 3.15293C22.0158 3.33489 21.9437 3.50943 21.8152 3.6383L20.3811 5.0738L17.6311 2.3238L19.0652 0.888302C19.1942 0.759416 19.369 0.687012 19.5513 0.687012C19.7336 0.687012 19.9084 0.759416 20.0373 0.888302L21.8152 2.66618V2.66755ZM19.409 6.04455L16.659 3.29455L7.2911 12.6638C7.21542 12.7395 7.15845 12.8317 7.12473 12.9333L6.01785 16.2526C5.99778 16.3131 5.99493 16.378 6.00962 16.44C6.02431 16.502 6.05597 16.5588 6.10105 16.6039C6.14613 16.6489 6.20286 16.6806 6.2649 16.6953C6.32694 16.71 6.39184 16.7071 6.45235 16.6871L9.7716 15.5802C9.87303 15.5468 9.9653 15.4904 10.0411 15.4152L19.409 6.04593V6.04455Z" fill="#FFD804"/>
  <path fill-rule="evenodd" clip-rule="evenodd" d="M1.875 18.5625C1.875 19.1095 2.0923 19.6341 2.47909 20.0209C2.86589 20.4077 3.39049 20.625 3.9375 20.625H19.0625C19.6095 20.625 20.1341 20.4077 20.5209 20.0209C20.9077 19.6341 21.125 19.1095 21.125 18.5625V10.3125C21.125 10.1302 21.0526 9.9553 20.9236 9.82636C20.7947 9.69743 20.6198 9.625 20.4375 9.625C20.2552 9.625 20.0803 9.69743 19.9514 9.82636C19.8224 9.9553 19.75 10.1302 19.75 10.3125V18.5625C19.75 18.7448 19.6776 18.9197 19.5486 19.0486C19.4197 19.1776 19.2448 19.25 19.0625 19.25H3.9375C3.75516 19.25 3.5803 19.1776 3.45136 19.0486C3.32243 18.9197 3.25 18.7448 3.25 18.5625V3.4375C3.25 3.25516 3.32243 3.0803 3.45136 2.95136C3.5803 2.82243 3.75516 2.75 3.9375 2.75H12.875C13.0573 2.75 13.2322 2.67757 13.3611 2.54864C13.4901 2.4197 13.5625 2.24484 13.5625 2.0625C13.5625 1.88016 13.4901 1.7053 13.3611 1.57636C13.2322 1.44743 13.0573 1.375 12.875 1.375H3.9375C3.39049 1.375 2.86589 1.5923 2.47909 1.97909C2.0923 2.36589 1.875 2.89049 1.875 3.4375V18.5625Z" fill="#333333"/>
  </g>
  <defs>
  <clipPath id="clip0_40_308">
  <rect width="22" height="22" fill="white" transform="translate(0.5)"/>
  </clipPath>
  </defs>
</svg>